<?xml version="1.0" encoding="iso-8859-1"?>
<!-- Generator: Adobe Illustrator 18.0.0, SVG Export Plug-In . SVG Version: 6.00 Build 0)  -->
<!DOCTYPE svg PUBLIC "-//W3C//DTD SVG 1.1//EN" "http://www.w3.org/Graphics/SVG/1.1/DTD/svg11.dtd">
<svg xmlns="http://www.w3.org/2000/svg" xmlns:xlink="http://www.w3.org/1999/xlink" version="1.1" id="Capa_1" x="0px" y="0px" viewBox="0 0 313.725 313.725" style="enable-background:new 0 0 313.725 313.725;" xml:space="preserve" width="512px" height="512px">
<path d="M156.862,0C70.368,0,0,70.368,0,156.862s70.368,156.862,156.862,156.862s156.862-70.368,156.862-156.862  S243.356,0,156.862,0z M290,156.862c0,32.444-11.671,62.21-31.028,85.334l-38.38-38.379c14.646-6.101,23.841-23.261,21.198-41.723  c-1.295-9.082-5.389-18.982-11.447-26.436h-43.125c-5.48,6.734-9.34,15.468-10.994,23.79l-7.826-7.825v-12.519  c0-13.805-8.158-25.73-19.904-31.226V61.338c0.934-1.237,1.498-2.768,1.498-4.44v-0.742c0-4.071-3.305-7.373-7.381-7.373h-17.34  c-4.074,0-7.381,3.302-7.381,7.373v0.742c0,1.673,0.561,3.203,1.498,4.44v41.276L71.526,54.755  c23.124-19.358,52.891-31.03,85.336-31.03C230.274,23.725,290,83.45,290,156.862z M216.948,234.713v-0.99l0.989,0.99H216.948z   M23.725,156.862c0-32.443,11.671-62.209,31.026-85.332l49.725,49.723c-3.167,5.21-4.992,11.321-4.992,17.852v105.353  c0,2.388,1.936,4.324,4.318,4.324h60.275c2.385,0,4.32-1.936,4.32-4.324v-59.284l32.216,32.215v17.324h-6.452  c-2.339,0-4.235,1.896-4.235,4.235v5.723c0,2.339,1.896,4.235,4.235,4.235h29.232c2.339,0,4.234-1.896,4.234-4.235v-0.268  l14.568,14.568C219.073,278.329,189.307,290,156.862,290C83.45,290,23.725,230.274,23.725,156.862z" fill="#FFFFFF"/>
<g>
</g>
<g>
</g>
<g>
</g>
<g>
</g>
<g>
</g>
<g>
</g>
<g>
</g>
<g>
</g>
<g>
</g>
<g>
</g>
<g>
</g>
<g>
</g>
<g>
</g>
<g>
</g>
<g>
</g>
</svg>
