<?xml version="1.0" encoding="iso-8859-1"?>
<!-- Generator: Adobe Illustrator 19.0.0, SVG Export Plug-In . SVG Version: 6.00 Build 0)  -->
<svg xmlns="http://www.w3.org/2000/svg" xmlns:xlink="http://www.w3.org/1999/xlink" version="1.1" id="Capa_1" x="0px" y="0px" viewBox="0 0 512 512" style="enable-background:new 0 0 512 512;" xml:space="preserve" width="512px" height="512px">
<g>
	<g>
		<path d="M344.615,0H167.385c-5.438,0-9.846,4.408-9.846,9.846v492.308c0,5.438,4.408,9.846,9.846,9.846h177.231    c5.438,0,9.846-4.408,9.846-9.846V9.846C354.462,4.408,350.053,0,344.615,0z M334.769,492.308H177.231v-29.538h39.385    c5.438,0,9.846-4.408,9.846-9.846s-4.408-9.846-9.846-9.846h-39.385v-29.538h29.866c5.438,0,9.846-4.408,9.846-9.846    s-4.408-9.846-9.846-9.846h-29.866v-29.538h39.385c5.438,0,9.846-4.408,9.846-9.846s-4.408-9.846-9.846-9.846h-39.385v-29.538    h29.866c5.438,0,9.846-4.408,9.846-9.846s-4.408-9.846-9.846-9.846h-29.866v-29.539h39.385c5.438,0,9.846-4.408,9.846-9.846    s-4.408-9.846-9.846-9.846h-39.385v-29.539h29.866c5.438,0,9.846-4.408,9.846-9.846s-4.408-9.846-9.846-9.846h-29.866v-29.538    h39.385c5.438,0,9.846-4.408,9.846-9.846c0-5.438-4.408-9.846-9.846-9.846h-39.385v-29.538h29.866    c5.438,0,9.846-4.408,9.846-9.846s-4.408-9.846-9.846-9.846h-29.866V68.923h39.385c5.438,0,9.846-4.408,9.846-9.846    c0-5.438-4.408-9.846-9.846-9.846h-39.385V19.692h157.538V492.308z" fill="#FFFFFF"/>
	</g>
</g>
<g>
	<g>
		<path d="M255.803,57.157c-0.118-0.63-0.315-1.25-0.561-1.841c-0.246-0.601-0.551-1.172-0.906-1.703    c-0.354-0.542-0.768-1.044-1.221-1.497c-0.453-0.453-0.955-0.867-1.497-1.221c-0.532-0.354-1.103-0.66-1.703-0.906    c-0.591-0.246-1.211-0.443-1.841-0.561c-1.27-0.256-2.58-0.256-3.84,0c-0.63,0.118-1.25,0.315-1.851,0.561    c-0.591,0.246-1.162,0.551-1.694,0.906c-0.542,0.354-1.044,0.768-1.497,1.221c-0.453,0.453-0.866,0.955-1.221,1.497    c-0.354,0.532-0.66,1.103-0.906,1.703c-0.246,0.591-0.443,1.211-0.561,1.841c-0.128,0.63-0.197,1.28-0.197,1.92    c0,0.64,0.069,1.29,0.197,1.92c0.118,0.63,0.315,1.25,0.561,1.841c0.246,0.601,0.551,1.172,0.906,1.703    c0.354,0.542,0.768,1.044,1.221,1.497s0.955,0.866,1.497,1.221c0.532,0.354,1.103,0.66,1.694,0.906    c0.601,0.246,1.221,0.443,1.851,0.561c0.63,0.128,1.28,0.197,1.92,0.197s1.29-0.069,1.92-0.197c0.63-0.118,1.25-0.315,1.841-0.561    c0.601-0.246,1.172-0.551,1.703-0.906c0.542-0.354,1.044-0.768,1.497-1.221c0.453-0.453,0.866-0.955,1.221-1.497    c0.354-0.532,0.66-1.103,0.906-1.703c0.246-0.591,0.443-1.211,0.561-1.841c0.128-0.63,0.197-1.28,0.197-1.92    C256,58.437,255.931,57.787,255.803,57.157z" fill="#FFFFFF"/>
	</g>
</g>
<g>
</g>
<g>
</g>
<g>
</g>
<g>
</g>
<g>
</g>
<g>
</g>
<g>
</g>
<g>
</g>
<g>
</g>
<g>
</g>
<g>
</g>
<g>
</g>
<g>
</g>
<g>
</g>
<g>
</g>
</svg>
