<?xml version="1.0" encoding="iso-8859-1"?>
<!-- Generator: Adobe Illustrator 18.1.1, SVG Export Plug-In . SVG Version: 6.00 Build 0)  -->
<svg version="1.1" id="Capa_1" xmlns="http://www.w3.org/2000/svg" xmlns:xlink="http://www.w3.org/1999/xlink" x="0px" y="0px"
	 viewBox="0 0 59.947 59.947" style="enable-background:new 0 0 59.947 59.947;" xml:space="preserve">
<g>
	<g>
		<path style="fill:#010002;" d="M54,23.064l-0.109-0.334c-0.164-0.486-3.248-9.59-8.48-14.856
			c-0.512-1.223-1.479-2.208-2.684-2.751c0.004-0.05,0.015-0.099,0.015-0.151c0-1.27-1.028-2.299-2.3-2.299
			c-1.27,0-2.299,1.029-2.299,2.299c0,0.101,0.017,0.196,0.027,0.292c-1.145,0.604-2.033,1.621-2.479,2.85
			c-1.591,1.768-3.497,4.284-5.354,7.691c-1.808-2.338-4.83-3.618-7.708-4.364l-2.695,5.542l0.585-4.945h0.099v-0.82h-2.04v0.82
			h0.104l0.692,4.948l-2.696-5.768c-0.25,0.07,0.061,0.011-0.176,0.103c-4.215,1.017-7.947,2.89-9.521,7.149
			c-1.658,4.49-0.95,9.994-0.417,14.527c0.33,2.812,4.782,2.844,4.447,0c-0.442-3.771-0.208-7.52-0.104-11.334
			c0.043-1.582,0.619-2.737,1.502-3.61l-0.051,19.52v19.435c0,1.599,1.17,2.892,2.813,2.892s2.974-1.293,2.974-2.892v-20.25
			c0,0,0.095-1.024,1.141-1.037c1.046-0.012,1.019,0.987,1.019,0.987V56.95c0,1.598,1.332,2.893,2.975,2.893
			s2.974-1.295,2.974-2.893l0.099-20.891c0-0.197,0.02-14.123,0.025-17.832c0.699,0.778,0.761,1.973,1.356,3.147
			c-0.175,0.439-0.348,0.886-0.518,1.346l-0.127,0.344h1.519c0.791,1.795,1.169,3.768,1.261,5.758
			c-0.108,1.205-0.158,2.425-0.165,3.653c-0.001,0.068,0.013,0.129,0.018,0.192c-0.324,2.836,4.118,2.801,4.448-0.011
			c0.2-1.713,0.107-3.405-0.154-5.09c0.158-1.177,0.438-2.322,0.931-3.459c0.446,0.749,1.765,3.575-0.321,8.472
			c-4.291,10.063-3.363,19.237-3.354,19.332c0.026,0.259,0.247,0.456,0.508,0.456h3.272v4.92c0,1.47,0.918,2.66,2.205,2.66
			s2.33-1.19,2.33-2.66v-4.92h1.693v4.869c0,1.47,1.042,2.658,2.332,2.658c1.287,0,2.331-1.188,2.331-2.658l0.039-4.869h2.999
			c0.252,0,0.466-0.186,0.506-0.436c0.057-0.373,1.382-9.275-2.914-19.354c-1.686-3.957-1.166-6.543-0.658-7.796
			c0.822,2.208,1.672,4.994,1.688,7.691c0.016,2.637,4.104,2.637,4.088,0c-0.021-3.252-0.31-6.466-1.351-9.41H54V23.064z
			 M19.573,28.621c-0.5,0-0.906-0.406-0.906-0.907c0-0.5,0.406-0.906,0.906-0.906c0.501,0,0.907,0.406,0.907,0.906
			C20.481,28.215,20.074,28.621,19.573,28.621z M19.573,25.769c-0.5,0-0.906-0.406-0.906-0.906c0-0.501,0.406-0.906,0.906-0.906
			c0.501,0,0.907,0.405,0.907,0.906C20.481,25.363,20.074,25.769,19.573,25.769z M19.641,22.916c-0.501,0-0.907-0.406-0.907-0.907
			c0-0.5,0.406-0.906,0.907-0.906c0.5,0,0.906,0.406,0.906,0.906S20.141,22.916,19.641,22.916z M23.358,17.778l0.452-1.321
			l-1.389,1.876l1.389-3.752l0.487,3.752L23.358,17.778z M27.824,22.556c0.076-0.201,0.153-0.395,0.23-0.591
			c0.11,0.195,0.214,0.392,0.313,0.591H27.824z M35.888,9.845c0.709-0.222,1.974-0.737,3.055-1.817
			c2.841,2.27,5.533,2.118,6.35,2.007c-0.082,2.523-2.154,4.553-4.697,4.553c-2.596,0-4.707-2.11-4.707-4.706
			C35.886,9.869,35.888,9.857,35.888,9.845z M45.633,32.984c3.651,8.568,3.103,16.465,2.896,18.364H32.252
			c-0.123-1.944-0.332-9.819,3.307-18.364c2.101-4.917,1.019-7.998,0.391-9.174c0.534-0.218,1.487-0.544,2.734-0.74h4.185
			c1.136,0.189,1.94,0.496,2.396,0.708C44.638,24.93,43.515,28.02,45.633,32.984z M37.672,17.87c-0.459,0-0.832-0.372-0.832-0.831
			c0-0.458,0.373-0.83,0.832-0.83c0.457,0,0.828,0.372,0.828,0.83C38.5,17.498,38.129,17.87,37.672,17.87z M39.331,19.748
			c0,0.459-0.372,0.831-0.831,0.831s-0.828-0.371-0.828-0.831c0-0.458,0.369-0.83,0.828-0.83S39.331,19.29,39.331,19.748z
			 M39.802,21.462c0-0.458,0.371-0.83,0.83-0.83c0.058,0,0.112,0.005,0.168,0.017c0.438,0.022,0.789,0.383,0.789,0.827
			c0,0.152-0.043,0.294-0.115,0.417c-0.217-0.01-0.44-0.016-0.672-0.016c-0.295,0-0.578,0.011-0.855,0.027
			C39.862,21.775,39.802,21.628,39.802,21.462z M43.724,19.762c0,0.458-0.373,0.83-0.83,0.83c-0.459,0-0.831-0.372-0.831-0.83
			s0.372-0.83,0.831-0.83C43.351,18.932,43.724,19.304,43.724,19.762z M42.894,17.054c0-0.46,0.371-0.832,0.83-0.832
			c0.457,0,0.83,0.372,0.83,0.832c0,0.458-0.373,0.83-0.83,0.83C43.265,17.884,42.894,17.512,42.894,17.054z M47.004,17.492
			c-0.692-0.741-4.646-2.175-6.231-2.175c-1.613,0-5.654,1.399-6.382,2.175c-0.86,0.924-1.562,1.911-2.146,2.944
			c-0.188-0.653-0.382-1.309-0.563-1.967c-0.229-0.817-0.576-1.545-1.012-2.2c1.613-3.009,3.275-5.319,4.729-7.039
			c-0.039,0.25-0.062,0.502-0.062,0.762c0,0,0.021-0.004,0.049-0.011c0.056,2.832,2.369,5.118,5.213,5.118
			c2.875,0,5.218-2.34,5.218-5.217c0-0.306-0.032-0.604-0.083-0.896c4.236,4.741,6.972,11.938,7.558,13.57h-3.133
			C49.45,20.737,48.439,19.03,47.004,17.492z"/>
		<circle style="fill:#010002;" cx="19.261" cy="5.057" r="5.057"/>
	</g>
</g>
<g>
</g>
<g>
</g>
<g>
</g>
<g>
</g>
<g>
</g>
<g>
</g>
<g>
</g>
<g>
</g>
<g>
</g>
<g>
</g>
<g>
</g>
<g>
</g>
<g>
</g>
<g>
</g>
<g>
</g>
</svg>
